Coordinates
version=1
nRows=27
nColumns=38
inDegrees=no

Units are S.I. units (second, meters, Newtons, ...)
If the header above contains a line with 'inDegrees', this indicates whether rotational values are in degrees (yes) or radians (no).

endheader
time	pelvis_tilt	pelvis_list	pelvis_rotation	pelvis_tx	pelvis_ty	pelvis_tz	hip_flexion_r	hip_adduction_r	hip_rotation_r	knee_angle_r	ankle_angle_r	subtalar_angle_r	mtp_angle_r	hip_flexion_l	hip_adduction_l	hip_rotation_l	knee_angle_l	ankle_angle_l	subtalar_angle_l	mtp_angle_l	lumbar_extension	lumbar_bending	lumbar_rotation	arm_flex_r	arm_add_r	arm_rot_r	elbow_flex_r	pro_sup_r	wrist_flex_r	wrist_dev_r	arm_flex_l	arm_add_l	arm_rot_l	elbow_flex_l	pro_sup_l	wrist_flex_l	wrist_dev_l
0.69	-0.117817	1.42024	-1.33036	0.669553	1.26869	1.06729	-0.106033	0.0350079	-0.382741	0.222777	-0.0608763	0	0	0.0556538	-0.176064	-0.247081	1.1411	-0.0634896	0	0	-0.632705	0.158887	-0.0433714	-0.124297	-0.442665	0.180299	0.915802	0.909193	0	0	-0.0259445	-0.453893	0.327266	0.807892	1.30644	0	0
0.7	-0.107142	1.42231	-1.34406	0.667764	1.25763	1.06892	-0.119361	0.0371187	-0.384202	0.210979	-0.0672384	0	0	0.0755036	-0.167988	-0.241155	1.12405	-0.0511714	0	0	-0.631971	0.154544	-0.0423512	-0.123471	-0.442904	0.181357	0.916442	0.907932	0	0	-0.0326164	-0.450095	0.324523	0.804647	1.30653	0	0
0.71	-0.093992	1.42551	-1.36067	0.666116	1.24657	1.07039	-0.125033	0.0323225	-0.390988	0.222065	-0.0615877	0	0	0.0951691	-0.158041	-0.234097	1.10202	-0.0378737	0	0	-0.629994	0.147867	-0.0509571	-0.109379	-0.445878	0.205182	0.908722	0.89858	0	0	-0.0527981	-0.443722	0.29418	0.808746	1.31908	0	0
0.72	-0.0848718	1.42501	-1.37344	0.6643	1.23545	1.07193	-0.147598	0.0402496	-0.387684	0.188452	-0.0846915	0	0	0.108895	-0.151053	-0.230447	1.07432	-0.0241097	0	0	-0.632759	0.143978	-0.0451204	-0.114313	-0.447586	0.199954	0.915784	0.892903	0	0	-0.0547021	-0.44077	0.297005	0.805458	1.31549	0	0
0.73	-0.0667776	1.42721	-1.39592	0.66263	1.22437	1.07303	-0.158636	0.0356077	-0.394276	0.19593	-0.0818079	0	0	0.123816	-0.141413	-0.228094	1.04176	-0.0197304	0	0	-0.632008	0.137707	-0.042168	-0.117099	-0.447582	0.195595	0.919483	0.896074	0	0	-0.0595387	-0.437494	0.295187	0.802911	1.31256	0	0
0.74	0.0290663	1.44123	-1.49921	0.660422	1.21299	1.07138	-0.167076	0.00860563	-0.388617	0.183586	-0.0850638	0	0	0.149592	-0.11916	-0.230325	1.00968	-0.010076	0	0	-0.615424	0.117324	-0.0440451	-0.125052	-0.444871	0.19162	0.924754	0.89601	0	0	-0.0718324	-0.439271	0.291525	0.805781	1.30835	0	0
0.75	0.0344398	1.44231	-1.50953	0.658822	1.20195	1.07233	-0.180196	0.0102093	-0.389657	0.176825	-0.0894833	0	0	0.16058	-0.113061	-0.234074	0.967504	-0.00517282	0	0	-0.615652	0.112476	-0.0414006	-0.124703	-0.446544	0.192683	0.926843	0.895838	0	0	-0.0782228	-0.435318	0.285053	0.804603	1.3044	0	0
0.76	0.0397407	1.44227	-1.52027	0.657259	1.19089	1.07319	-0.194365	0.0116755	-0.388822	0.170267	-0.0939244	0	0	0.168566	-0.107382	-0.2423	0.920695	-0.00383343	0	0	-0.617575	0.107596	-0.0387924	-0.124128	-0.449314	0.194651	0.930306	0.894466	0	0	-0.0847253	-0.430873	0.276188	0.804542	1.30115	0	0
0.77	0.0935942	1.43697	-1.57541	0.655369	1.17879	1.07308	-0.245638	0.0243292	-0.442754	0.166965	-0.0727104	0	0	0.168304	-0.0970659	-0.257103	0.870891	-0.00514135	0	0	-0.620181	0.097107	-0.0441412	-0.128844	-0.448785	0.195126	0.937789	0.892979	0	0	-0.0991923	-0.433722	0.265941	0.813102	1.29622	0	0
0.78	0.0776155	1.43519	-1.56615	0.653946	1.16791	1.07406	-0.254992	0.0267868	-0.432844	0.160513	-0.0769102	0	0	0.17149	-0.0935482	-0.271361	0.815487	-0.0110313	0	0	-0.626033	0.0939669	-0.0398059	-0.12537	-0.453236	0.199456	0.940637	0.891182	0	0	-0.104649	-0.428666	0.255401	0.813488	1.29486	0	0
0.79	0.0125723	1.43059	-1.50924	0.652874	1.15742	1.07611	-0.255829	0.0352084	-0.399572	0.145103	-0.0978671	0	0	0.169476	-0.0964256	-0.287343	0.75298	-0.0262582	0	0	-0.638473	0.0971099	-0.0343726	-0.111773	-0.462784	0.216615	0.939166	0.882661	0	0	-0.109534	-0.416112	0.230768	0.811265	1.30455	0	0
0.8	-0.0147113	1.42769	-1.48892	0.65162	1.1465	1.0769	-0.262416	0.0373334	-0.389343	0.142561	-0.112572	0	0	0.167586	-0.0929544	-0.303226	0.688134	-0.0352136	0	0	-0.646101	0.0963173	-0.0278582	-0.109411	-0.469004	0.219585	0.944329	0.877713	0	0	-0.110334	-0.408754	0.221267	0.807527	1.308	0	0
0.81	0.0695156	1.43917	-1.58339	0.64973	1.13509	1.07409	-0.266307	0.0119158	-0.387718	0.143325	-0.111749	0	0	0.179808	-0.0706899	-0.320036	0.62378	-0.0435702	0	0	-0.632772	0.0770668	-0.0286388	-0.114171	-0.470004	0.220498	0.950611	0.874393	0	0	-0.120364	-0.408147	0.211217	0.809809	1.30903	0	0
0.82	0.0773791	1.44054	-1.59826	0.648464	1.12387	1.07332	-0.278264	0.0104592	-0.384209	0.139353	-0.110404	0	0	0.178368	-0.0579712	-0.330533	0.549876	-0.0556919	0	0	-0.633243	0.0707238	-0.0268815	-0.11244	-0.474025	0.224682	0.954416	0.871668	0	0	-0.124948	-0.404132	0.201989	0.808615	1.3107	0	0
0.83	0.0137171	1.43223	-1.5368	0.64775	1.11264	1.07443	-0.301702	0.0320766	-0.381976	0.127189	-0.11405	0	0	0.162627	-0.0530103	-0.332413	0.465795	-0.0730093	0	0	-0.647312	0.0766016	-0.0236269	-0.106359	-0.480512	0.23049	0.957525	0.867834	0	0	-0.124059	-0.397027	0.192779	0.804116	1.31478	0	0
0.84	0.0201925	1.43505	-1.54793	0.646611	1.10125	1.07307	-0.31255	0.0310789	-0.379945	0.122745	-0.114532	0	0	0.15633	-0.0351212	-0.326149	0.376378	-0.0905302	0	0	-0.646973	0.0711102	-0.0233582	-0.104906	-0.483755	0.234036	0.961357	0.86385	0	0	-0.127639	-0.393422	0.18332	0.802788	1.31832	0	0
0.85	0.0245206	1.43954	-1.55596	0.645578	1.08979	1.07127	-0.32144	0.0304309	-0.377784	0.119295	-0.112396	0	0	0.147032	-0.014646	-0.305385	0.275691	-0.11359	0	0	-0.64451	0.0661086	-0.024229	-0.102557	-0.486517	0.238881	0.963505	0.860569	0	0	-0.131751	-0.389529	0.172447	0.801157	1.32161	0	0
0.86	0.0261231	1.44576	-1.56051	0.644657	1.07833	1.06902	-0.328213	0.0301576	-0.375297	0.117097	-0.107864	0	0	0.130826	0.00799965	-0.261369	0.155998	-0.146812	0	0	-0.64009	0.0618177	-0.0259377	-0.0996395	-0.489076	0.244344	0.964737	0.85784	0	0	-0.136271	-0.385713	0.161141	0.79967	1.32671	0	0
0.87	0.0157498	1.45386	-1.55198	0.643889	1.06677	1.0662	-0.332474	0.031529	-0.37379	0.116293	-0.1016	0	0	0.102405	0.0282156	-0.182727	0.00773999	-0.199707	0	0	-0.633466	0.0595318	-0.027935	-0.0971039	-0.49191	0.249793	0.966102	0.854957	0	0	-0.141592	-0.381853	0.149484	0.798942	1.33387	0	0
0.88	-0.00997622	1.45061	-1.53509	0.643947	1.05386	1.06298	-0.349758	0.0300899	-0.377399	0.117509	-0.0883366	0	0	0.178644	-0.0329479	-0.481246	0.194162	-0.13325	0	0	-0.636543	0.0598737	-0.0182482	-0.111927	-0.50253	0.237504	0.985974	0.858798	0	0	-0.145713	-0.377337	0.152611	0.801199	1.3307	0	0
0.89	-0.0266572	1.466	-1.52167	0.642201	1.04288	1.05989	-0.343331	0.0320083	-0.364818	0.119681	-0.0873349	0	0	0.120304	0.028909	-0.235524	0	-0.16806	0	0	-0.625466	0.0543219	-0.0177342	-0.104961	-0.500634	0.243618	0.980583	0.856025	0	0	-0.14612	-0.376456	0.14453	0.797422	1.33758	0	0
0.9	-0.0665153	1.47318	-1.47887	0.641897	1.0308	1.0565	-0.346064	0.0359278	-0.373744	0.125884	-0.0688614	0	0	0.138906	0.0295637	-0.237778	0	-0.172421	0	0	-0.618125	0.0555018	-0.0285998	-0.0941144	-0.504519	0.263655	0.976594	0.847043	0	0	-0.159684	-0.368709	0.112528	0.800487	1.35779	0	0
0.91	-0.0989942	1.47581	-1.44897	0.64111	1.01857	1.05345	-0.353088	0.0371832	-0.376711	0.132497	-0.0634721	0	0	0.162009	0.0277417	-0.27948	0	-0.153763	0	0	-0.61691	0.0545083	-0.0277122	-0.0955585	-0.5066	0.262052	0.981633	0.848053	0	0	-0.162686	-0.36803	0.110258	0.800049	1.35521	0	0
0.92	-0.126142	1.47726	-1.42364	0.640334	1.0063	1.05064	-0.360395	0.0377976	-0.380315	0.141349	-0.0586298	0	0	0.179321	0.0274162	-0.308432	0	-0.138256	0	0	-0.617141	0.0531633	-0.0274844	-0.0964878	-0.507534	0.25995	0.985783	0.849345	0	0	-0.164611	-0.368422	0.109996	0.798991	1.35118	0	0
0.93	-0.148769	1.47865	-1.40319	0.639407	0.993969	1.0481	-0.366969	0.0376389	-0.38162	0.151835	-0.0541587	0	0	0.183954	0.0331516	-0.309839	0	-0.127466	0	0	-0.617713	0.0507753	-0.0269102	-0.0967189	-0.506955	0.257505	0.988123	0.851138	0	0	-0.165171	-0.36981	0.11197	0.79652	1.34575	0	0
0.94	-0.160834	1.47923	-1.39291	0.638514	0.981449	1.04584	-0.372937	0.0356873	-0.385731	0.167126	-0.0444894	0	0	0.187907	0.0391737	-0.31035	0	-0.11032	0	0	-0.618464	0.0479561	-0.0263783	-0.0977649	-0.504374	0.252239	0.988907	0.855768	0	0	-0.163963	-0.372762	0.119758	0.792048	1.33282	0	0
0.95	-0.166346	1.48125	-1.38878	0.637547	0.968608	1.04372	-0.375318	0.031731	-0.393591	0.188963	-0.0271598	0	0	0.194364	0.0450527	-0.310683	0	-0.0863559	0	0	-0.615215	0.0442737	-0.0269107	-0.098653	-0.497602	0.24444	0.984368	0.861214	0	0	-0.162393	-0.375713	0.129491	0.783647	1.31153	0	0
